<svg width="25" height="25" viewBox="0 0 25 25" fill="none" xmlns="http://www.w3.org/2000/svg">
<g clip-path="url(#clip0)">
<path d="M22.7704 0H2.09155C1.10098 0 0.299988 0.782031 0.299988 1.74891V22.513C0.299988 23.4799 1.10098 24.2667 2.09155 24.2667H22.7704C23.7609 24.2667 24.5667 23.4799 24.5667 22.5178V1.74891C24.5667 0.782031 23.7609 0 22.7704 0ZM7.49941 20.6788H3.89733V9.09526H7.49941V20.6788ZM5.69837 7.51698C4.54191 7.51698 3.60822 6.58328 3.60822 5.43156C3.60822 4.27984 4.54191 3.34615 5.69837 3.34615C6.85009 3.34615 7.78379 4.27984 7.78379 5.43156C7.78379 6.57854 6.85009 7.51698 5.69837 7.51698ZM20.9788 20.6788H17.3814V15.0482C17.3814 13.7069 17.3577 11.9769 15.5093 11.9769C13.6372 11.9769 13.3528 13.4415 13.3528 14.9534V20.6788H9.7602V9.09526H13.2106V10.6783H13.258C13.7367 9.76828 14.9121 8.80615 16.661 8.80615C20.3058 8.80615 20.9788 11.2044 20.9788 14.323V20.6788Z" fill="#A7A9AC"/>
</g>
<defs>
<clipPath id="clip0">
<rect width="24.2667" height="24.2667" fill="white" transform="translate(0.299988)"/>
</clipPath>
</defs>
</svg>
