<svg width="25" height="25" viewBox="0 0 25 25" fill="none" xmlns="http://www.w3.org/2000/svg">
<g clip-path="url(#clip0)">
<path d="M24.7 12.1333C24.7 5.43227 19.2677 0 12.5667 0C5.86562 0 0.43335 5.43227 0.43335 12.1333C0.43335 18.1893 4.87031 23.209 10.6708 24.1193V15.6406H7.59012V12.1333H10.6708V9.46021C10.6708 6.41929 12.4823 4.73958 15.2538 4.73958C16.5809 4.73958 17.9698 4.97656 17.9698 4.97656V7.9625H16.4399C14.9327 7.9625 14.4625 8.89786 14.4625 9.85833V12.1333H17.8276L17.2897 15.6406H14.4625V24.1193C20.2631 23.209 24.7 18.1893 24.7 12.1333Z" fill="#A7A9AC"/>
</g>
<defs>
<clipPath id="clip0">
<rect width="24.2667" height="24.2667" fill="white" transform="translate(0.43335)"/>
</clipPath>
</defs>
</svg>
