<svg width="25" height="25" viewBox="0 0 25 25" fill="none" xmlns="http://www.w3.org/2000/svg">
<g clip-path="url(#clip0)">
<path d="M24.7583 7.28007C24.7583 7.28007 24.5214 5.607 23.7915 4.87236C22.8673 3.90549 21.834 3.90075 21.3601 3.84387C17.9665 3.59741 12.8715 3.59741 12.8715 3.59741H12.862C12.862 3.59741 7.76694 3.59741 4.3734 3.84387C3.89944 3.90075 2.86621 3.90549 1.94199 4.87236C1.2121 5.607 0.979857 7.28007 0.979857 7.28007C0.979857 7.28007 0.733398 9.247 0.733398 11.2092V13.0481C0.733398 15.0103 0.975117 16.9773 0.975117 16.9773C0.975117 16.9773 1.2121 18.6503 1.93725 19.385C2.86147 20.3518 4.0748 20.3187 4.61512 20.4229C6.55835 20.6078 12.8667 20.6647 12.8667 20.6647C12.8667 20.6647 17.9665 20.6552 21.3601 20.4135C21.834 20.3566 22.8673 20.3518 23.7915 19.385C24.5214 18.6503 24.7583 16.9773 24.7583 16.9773C24.7583 16.9773 25.0001 15.0151 25.0001 13.0481V11.2092C25.0001 9.247 24.7583 7.28007 24.7583 7.28007ZM10.3595 15.2805V8.46022L16.9143 11.8822L10.3595 15.2805Z" fill="#A7A9AC"/>
</g>
<defs>
<clipPath id="clip0">
<rect width="24.2667" height="24.2667" fill="white" transform="translate(0.733398)"/>
</clipPath>
</defs>
</svg>
