<svg width="25" height="20" viewBox="0 0 25 20" fill="none" xmlns="http://www.w3.org/2000/svg">
<path d="M7.63405 19.9916C16.789 19.9916 21.7978 12.4049 21.7978 5.82779C21.7978 5.61451 21.7931 5.39649 21.7836 5.18321C22.758 4.47857 23.5988 3.60577 24.2667 2.60582C23.3592 3.00956 22.3957 3.27324 21.4092 3.38785C22.448 2.76518 23.2258 1.787 23.5984 0.63463C22.6211 1.21379 21.5524 1.62233 20.438 1.84275C19.6872 1.04493 18.6944 0.516684 17.6132 0.339673C16.5321 0.162663 15.4227 0.34675 14.4566 0.863475C13.4905 1.3802 12.7216 2.20078 12.2687 3.19835C11.8157 4.19592 11.704 5.31491 11.9509 6.38232C9.97207 6.28302 8.03625 5.76899 6.26887 4.87354C4.50149 3.9781 2.94202 2.72123 1.69156 1.18442C1.056 2.28019 0.861524 3.57684 1.14764 4.81085C1.43376 6.04485 2.17901 7.12362 3.23192 7.8279C2.44146 7.8028 1.66831 7.58998 0.976354 7.20701V7.26862C0.975646 8.41855 1.37319 9.53324 2.1014 10.4232C2.82962 11.3132 3.84356 11.9235 4.97087 12.1504C4.23863 12.3507 3.47011 12.3799 2.72479 12.2357C3.04289 13.2247 3.66181 14.0896 4.49517 14.7099C5.32852 15.3301 6.33473 15.6747 7.37337 15.6956C5.61007 17.0807 3.43189 17.832 1.18964 17.8284C0.79199 17.8278 0.394737 17.8034 0 17.7554C2.27789 19.2168 4.92768 19.993 7.63405 19.9916Z" fill="#A7A9AC"/>
</svg>
