<svg width="26" height="25" viewBox="0 0 26 25" fill="none" xmlns="http://www.w3.org/2000/svg">
<g clip-path="url(#clip0)">
<path d="M13 2.18495C16.2419 2.18495 16.6258 2.19917 17.9008 2.25604C19.0857 2.30818 19.7255 2.50724 20.1521 2.67313C20.7161 2.89115 21.1237 3.15656 21.5455 3.57839C21.9721 4.00495 22.2327 4.40781 22.4508 4.97182C22.6166 5.39839 22.8157 6.04297 22.8678 7.22312C22.9247 8.50281 22.9389 8.88672 22.9389 12.1239C22.9389 15.3657 22.9247 15.7496 22.8678 17.0246C22.8157 18.2095 22.6166 18.8493 22.4508 19.2759C22.2327 19.8399 21.9673 20.2475 21.5455 20.6693C21.1189 21.0959 20.7161 21.3566 20.1521 21.5746C19.7255 21.7405 19.0809 21.9395 17.9008 21.9917C16.6211 22.0485 16.2372 22.0628 13 22.0628C9.75816 22.0628 9.37425 22.0485 8.0993 21.9917C6.91441 21.9395 6.27456 21.7405 5.848 21.5746C5.28399 21.3566 4.87639 21.0911 4.45456 20.6693C4.028 20.2428 3.76732 19.8399 3.5493 19.2759C3.38342 18.8493 3.18436 18.2047 3.13222 17.0246C3.07535 15.7449 3.06113 15.361 3.06113 12.1239C3.06113 8.88198 3.07535 8.49807 3.13222 7.22312C3.18436 6.03823 3.38342 5.39839 3.5493 4.97182C3.76732 4.40781 4.03274 4.00021 4.45456 3.57839C4.88113 3.15182 5.28399 2.89115 5.848 2.67313C6.27456 2.50724 6.91915 2.30818 8.0993 2.25604C9.37425 2.19917 9.75816 2.18495 13 2.18495ZM13 0C9.70602 0 9.29368 0.0142187 7.99977 0.0710938C6.71061 0.127969 5.8243 0.33651 5.05649 0.635104C4.2555 0.947917 3.57774 1.36026 2.90472 2.03802C2.22696 2.71104 1.81462 3.3888 1.5018 4.18505C1.20321 4.9576 0.994668 5.83917 0.937793 7.12833C0.880918 8.42698 0.866699 8.83932 0.866699 12.1333C0.866699 15.4273 0.880918 15.8397 0.937793 17.1336C0.994668 18.4228 1.20321 19.3091 1.5018 20.0769C1.81462 20.8779 2.22696 21.5556 2.90472 22.2286C3.57774 22.9017 4.2555 23.3188 5.05175 23.6268C5.8243 23.9254 6.70587 24.134 7.99503 24.1908C9.28894 24.2477 9.70128 24.2619 12.9953 24.2619C16.2893 24.2619 16.7016 24.2477 17.9956 24.1908C19.2847 24.134 20.171 23.9254 20.9388 23.6268C21.7351 23.3188 22.4128 22.9017 23.0859 22.2286C23.7589 21.5556 24.176 20.8779 24.484 20.0816C24.7826 19.3091 24.9912 18.4275 25.0481 17.1383C25.1049 15.8444 25.1191 15.4321 25.1191 12.1381C25.1191 8.84406 25.1049 8.43172 25.0481 7.13781C24.9912 5.84865 24.7826 4.96234 24.484 4.19453C24.1854 3.3888 23.7731 2.71104 23.0953 2.03802C22.4223 1.365 21.7446 0.947917 20.9483 0.639844C20.1758 0.34125 19.2942 0.132708 18.005 0.0758333C16.7064 0.0142188 16.294 0 13 0Z" fill="#A7A9AC"/>
<path d="M13 5.90063C9.5591 5.90063 6.76749 8.69225 6.76749 12.1332C6.76749 15.5741 9.5591 18.3657 13 18.3657C16.441 18.3657 19.2326 15.5741 19.2326 12.1332C19.2326 8.69225 16.441 5.90063 13 5.90063ZM13 16.176C10.7677 16.176 8.95717 14.3655 8.95717 12.1332C8.95717 9.90084 10.7677 8.09032 13 8.09032C15.2324 8.09032 17.0429 9.90084 17.0429 12.1332C17.0429 14.3655 15.2324 16.176 13 16.176Z" fill="#A7A9AC"/>
<path d="M20.9341 5.65427C20.9341 6.46 20.28 7.10933 19.479 7.10933C18.6733 7.10933 18.024 6.45526 18.024 5.65427C18.024 4.84854 18.678 4.19922 19.479 4.19922C20.28 4.19922 20.9341 4.85328 20.9341 5.65427Z" fill="#A7A9AC"/>
</g>
<defs>
<clipPath id="clip0">
<rect width="24.2667" height="24.2667" fill="white" transform="translate(0.866699)"/>
</clipPath>
</defs>
</svg>
