<svg width="100" height="100" viewBox="0 0 100 100" fill="none" xmlns="http://www.w3.org/2000/svg">
<g clip-path="url(#clip0)">
<path d="M94.9684 39.9118H88.7709C88.6635 39.9118 88.5715 39.8374 88.5422 39.7269C87.6395 36.3321 86.2842 33.065 84.5145 30.0156C84.4567 29.916 84.4692 29.798 84.5453 29.722L88.9311 25.3363C90.8928 23.3746 90.8928 20.1824 88.9311 18.2205L81.7799 11.0693C79.8176 9.1074 76.6258 9.10779 74.6641 11.0693L70.278 15.455C70.2022 15.5312 70.0838 15.5433 69.9846 15.4855C66.935 13.7158 63.6676 12.3607 60.2731 11.4578C60.1626 11.4283 60.0884 11.3365 60.0884 11.2291V5.03183C60.0884 2.25722 57.8311 0 55.0565 0H44.9435C42.1689 0 39.9118 2.25722 39.9118 5.03183V11.2293C39.9118 11.3367 39.8376 11.4285 39.7271 11.458C36.3323 12.3609 33.065 13.7162 30.0156 15.4857C29.9158 15.5435 29.7982 15.531 29.722 15.455L25.3361 11.0691C23.3744 9.1074 20.1822 9.10721 18.2203 11.0691L11.0693 18.2203C10.1189 19.1707 9.59549 20.4341 9.59549 21.7783C9.59549 23.1224 10.1189 24.3859 11.0693 25.3363L15.455 29.722C15.5312 29.7982 15.5435 29.9161 15.4857 30.0156C13.716 33.0652 12.3607 36.3325 11.458 39.7269C11.4285 39.8376 11.3367 39.9118 11.2293 39.9118H5.03183C2.25722 39.9118 0 42.1689 0 44.9435V55.0565C0 57.8311 2.25722 60.0884 5.03163 60.0884H11.2291C11.3365 60.0884 11.4285 60.1626 11.4578 60.2731C12.3605 63.6676 13.7158 66.9348 15.4855 69.9844C15.5433 70.084 15.531 70.202 15.4549 70.278L11.0693 74.6639C10.1189 75.6141 9.59549 76.8778 9.59549 78.2219C9.59549 79.566 10.1189 80.8295 11.0693 81.7799L18.2203 88.9311C20.1824 90.893 23.3744 90.893 25.3361 88.9311L29.722 84.5451C29.7982 84.469 29.916 84.4567 30.0156 84.5145C33.065 86.2842 36.3323 87.6393 39.7271 88.5422C39.8376 88.5717 39.9118 88.6635 39.9118 88.7709V94.9684C39.9118 97.743 42.1691 100 44.9435 100H55.0565C57.8311 100 60.0884 97.743 60.0884 94.9684V88.7709C60.0884 88.6635 60.1626 88.5717 60.2731 88.5422C63.6678 87.6393 66.9352 86.284 69.9846 84.5145C70.0838 84.4567 70.2022 84.469 70.278 84.5451L74.6639 88.9311C76.626 90.8928 79.8178 90.893 81.7801 88.9309L82.2903 88.4205C82.8612 87.8492 82.861 86.9231 82.2899 86.352C81.7184 85.7809 80.7924 85.7809 80.2211 86.3524L79.7114 86.8625C78.8897 87.684 77.5536 87.6836 76.7323 86.8625L72.3465 82.4768C71.3348 81.4649 69.76 81.2625 68.5161 81.9844C65.6911 83.6238 62.6647 84.8791 59.521 85.7153C58.1325 86.0844 57.1628 87.341 57.1628 88.7711V94.9686C57.1628 96.1301 56.2179 97.075 55.0563 97.075H44.9433C43.7819 97.075 42.837 96.1301 42.837 94.9686V88.7711C42.837 87.3412 41.8673 86.0846 40.4788 85.7153C37.3351 84.8791 34.3087 83.6238 31.4837 81.9844C30.24 81.2625 28.665 81.4651 27.6533 82.4768L23.2673 86.8627C22.446 87.6838 21.1097 87.684 20.2884 86.8627L13.1375 79.7116C12.7396 79.3137 12.5205 78.7848 12.5205 78.2221C12.5205 77.6594 12.7396 77.1305 13.1375 76.7327L17.5232 72.3469C18.5349 71.3354 18.7373 69.76 18.0156 68.5165C16.3761 65.6915 15.1209 62.6651 14.2847 59.5214C13.9154 58.1329 12.6588 57.1632 11.2289 57.1632H5.03183C3.8705 57.1632 2.92558 56.2182 2.92558 55.0567V44.9437C2.92558 43.7823 3.8705 42.8374 5.03183 42.8374H11.2293C12.6592 42.8374 13.9158 41.8677 14.2851 40.479C15.1213 37.3355 16.3763 34.3091 18.016 31.4841C18.7379 30.2406 18.5353 28.6652 17.5236 27.6537L13.1377 23.2675C12.7398 22.8697 12.5207 22.3408 12.5207 21.7781C12.5207 21.2154 12.7398 20.6865 13.1377 20.2886L20.2886 13.1375C21.1099 12.3162 22.446 12.3164 23.2675 13.1375L27.6535 17.5234C28.6652 18.5351 30.2402 18.7375 31.4839 18.0158C34.3089 16.3763 37.3353 15.1211 40.4788 14.2849C41.8675 13.9156 42.8372 12.6592 42.8372 11.2291V5.03183C42.8372 3.8703 43.7821 2.92538 44.9435 2.92538H55.0565C56.2181 2.92538 57.163 3.8703 57.163 5.03183V11.2293C57.163 12.6592 58.1327 13.9158 59.5212 14.2851C62.6649 15.1213 65.6913 16.3765 68.5163 18.016C69.7594 18.7377 71.335 18.5355 72.3467 17.5236L76.7327 13.1377C77.5539 12.3164 78.8901 12.3164 79.7114 13.1377L86.8623 20.2888C87.6836 21.1101 87.6836 22.4464 86.8623 23.2677L82.4766 27.6535C81.4651 28.665 81.2627 30.2404 81.9844 31.4839C83.6237 34.3087 84.8789 37.3351 85.7151 40.479C86.0846 41.8675 87.341 42.8372 88.7709 42.8372H94.9684C96.1297 42.8372 97.0746 43.7821 97.0746 44.9435V55.0565C97.0746 56.2181 96.1297 57.163 94.9684 57.163H88.7709C87.341 57.163 86.0846 58.1327 85.7151 59.5212C84.8789 62.6649 83.6237 65.6913 81.9844 68.5161C81.2625 69.7596 81.4651 71.335 82.4766 72.3465L86.8623 76.7323C87.6836 77.5536 87.6836 78.8899 86.8623 79.7112L85.0541 81.5194C84.483 82.0905 84.483 83.0168 85.0541 83.5879C85.6254 84.159 86.5514 84.1592 87.1229 83.5879L88.9311 81.7797C90.8928 79.8178 90.8928 76.6256 88.9311 74.6639L84.5453 70.2782C84.4692 70.202 84.4569 70.084 84.5145 69.9846C86.2842 66.9352 87.6395 63.6678 88.5422 60.2733C88.5715 60.1626 88.6635 60.0884 88.7709 60.0884H94.9684C97.7428 60.0884 100 57.8311 100 55.0565V44.9435C99.9998 42.1689 97.7426 39.9118 94.9684 39.9118Z" fill="white"/>
<path d="M31.9918 25.8363C32.6391 25.3531 32.7721 24.4365 32.2889 23.7891C31.8055 23.1418 30.8891 23.0088 30.2416 23.492C26.2039 26.5062 22.8576 30.4635 20.5645 34.9359C18.1598 39.626 16.9404 44.6941 16.9404 50C16.9404 68.2291 31.7709 83.0596 50 83.0596C68.2293 83.0596 83.0598 68.2291 83.0598 50C83.0598 31.7709 68.2293 16.9404 50 16.9404C45.2187 16.9404 40.6059 17.9393 36.2893 19.9092C35.5543 20.2445 35.2305 21.1123 35.5658 21.8471C35.9012 22.582 36.7689 22.9057 37.5037 22.5705C41.4363 20.7758 45.6408 19.8658 50 19.8658C66.6162 19.8658 80.1344 33.384 80.1344 50C80.1344 66.616 66.6162 80.1344 50 80.1344C33.384 80.1344 19.8658 66.6162 19.8658 50.0002C19.8658 45.1629 20.9768 40.5437 23.1676 36.2709C25.2584 32.1934 28.3098 28.5852 31.9918 25.8363Z" fill="white"/>
<path d="M61.0385 51.0567C61.7294 51.476 62.6288 51.2561 63.0481 50.5656C64.4907 48.1895 65.2534 45.457 65.2534 42.6641C65.2534 38.6328 63.6954 34.8315 60.8667 31.96C58.0409 29.0918 54.2696 27.477 50.2469 27.4131C41.8297 27.275 34.8842 34.009 34.7493 42.4143C34.6788 46.811 36.5088 51.0246 39.7706 53.9746C41.6532 55.6776 42.7641 58.1104 42.7641 60.6498V68.2119C42.7641 70.6256 44.7278 72.5893 47.1415 72.5893H52.859C55.2729 72.5893 57.2366 70.6256 57.2366 68.2119C57.2366 68.2119 57.2366 60.7512 57.2366 60.6502C57.2366 58.9227 57.7712 57.2322 58.7235 55.7615C59.1626 55.0834 58.9688 54.1779 58.2907 53.7389C57.6131 53.3 56.7071 53.4936 56.2678 54.1717C55.2778 55.7006 54.6547 57.4117 54.4335 59.1875H51.4629V50.7453H52.5801C53.3879 50.7453 54.0428 50.0904 54.0428 49.2826C54.0428 48.4748 53.3881 47.8199 52.5801 47.8199H47.4204C46.6126 47.8199 45.9577 48.4748 45.9577 49.2826C45.9577 50.0904 46.6126 50.7453 47.4204 50.7453H48.5376V59.1875H45.5678C45.2176 56.3645 43.8631 53.7322 41.7329 51.8053C39.0965 49.4209 37.6172 46.0151 37.6743 42.4615C37.7833 35.6688 43.4081 30.2299 50.2004 30.3385C53.4508 30.3901 56.4987 31.6953 58.7827 34.0135C61.0688 36.334 62.328 39.4065 62.328 42.6645C62.328 44.9221 61.7122 47.1293 60.5475 49.0479C60.1282 49.7377 60.3481 50.6375 61.0385 51.0567ZM45.6893 62.1129H54.311V68.2119C54.311 69.0125 53.6594 69.6639 52.8588 69.6639H47.1413C46.3407 69.6639 45.6893 69.0125 45.6893 68.2119V62.1129Z" fill="white"/>
</g>
<defs>
<clipPath id="clip0">
<rect width="100" height="100" fill="white"/>
</clipPath>
</defs>
</svg>
