<svg width="101" height="100" viewBox="0 0 101 100" fill="none" xmlns="http://www.w3.org/2000/svg">
<g clip-path="url(#clip0)">
<path d="M95.0045 39.9118H88.8071C88.6996 39.9118 88.6076 39.8374 88.5783 39.7269C87.6756 36.3321 86.3203 33.065 84.5506 30.0156C84.4928 29.916 84.5053 29.798 84.5815 29.722L88.9672 25.3363C90.9289 23.3746 90.9289 20.1824 88.9672 18.2205L81.816 11.0693C79.8537 9.1074 76.662 9.10779 74.7002 11.0693L70.3141 15.455C70.2383 15.5312 70.12 15.5433 70.0208 15.4855C66.9712 13.7158 63.7038 12.3607 60.3093 11.4578C60.1987 11.4283 60.1245 11.3365 60.1245 11.2291V5.03183C60.1245 2.25722 57.8673 0 55.0927 0H44.9796C42.205 0 39.948 2.25722 39.948 5.03183V11.2293C39.948 11.3367 39.8737 11.4285 39.7632 11.458C36.3685 12.3609 33.1011 13.7162 30.0517 15.4857C29.9519 15.5435 29.8343 15.531 29.7581 15.455L25.3722 11.0691C23.4105 9.1074 20.2183 9.10721 18.2564 11.0691L11.1054 18.2203C10.1551 19.1707 9.63162 20.4341 9.63162 21.7783C9.63162 23.1224 10.1551 24.3859 11.1054 25.3363L15.4912 29.722C15.5674 29.7982 15.5797 29.9161 15.5218 30.0156C13.7521 33.0652 12.3969 36.3325 11.4941 39.7269C11.4646 39.8376 11.3728 39.9118 11.2654 39.9118H5.06796C2.29335 39.9118 0.0361328 42.1689 0.0361328 44.9435V55.0565C0.0361328 57.8311 2.29335 60.0884 5.06776 60.0884H11.2652C11.3726 60.0884 11.4646 60.1626 11.4939 60.2731C12.3967 63.6676 13.7519 66.9348 15.5216 69.9844C15.5795 70.084 15.5672 70.202 15.491 70.278L11.1054 74.6639C10.1551 75.6141 9.63162 76.8778 9.63162 78.2219C9.63162 79.566 10.1551 80.8295 11.1054 81.7799L18.2564 88.9311C20.2185 90.893 23.4105 90.893 25.3722 88.9311L29.7581 84.5451C29.8343 84.469 29.9521 84.4567 30.0517 84.5145C33.1011 86.2842 36.3685 87.6393 39.7632 88.5422C39.8737 88.5717 39.948 88.6635 39.948 88.7709V94.9684C39.948 97.743 42.2052 100 44.9796 100H55.0927C57.8673 100 60.1245 97.743 60.1245 94.9684V88.7709C60.1245 88.6635 60.1987 88.5717 60.3093 88.5422C63.704 87.6393 66.9714 86.284 70.0208 84.5145C70.12 84.4567 70.2383 84.469 70.3141 84.5451L74.7001 88.9311C76.6622 90.8928 79.8539 90.893 81.8162 88.9309L82.3264 88.4205C82.8973 87.8492 82.8971 86.9231 82.326 86.352C81.7545 85.7809 80.8286 85.7809 80.2573 86.3524L79.7475 86.8625C78.9258 87.684 77.5897 87.6836 76.7684 86.8625L72.3827 82.4768C71.371 81.4649 69.7962 81.2625 68.5522 81.9844C65.7272 83.6238 62.7009 84.8791 59.5571 85.7153C58.1686 86.0844 57.1989 87.341 57.1989 88.7711V94.9686C57.1989 96.1301 56.254 97.075 55.0925 97.075H44.9794C43.8181 97.075 42.8732 96.1301 42.8732 94.9686V88.7711C42.8732 87.3412 41.9034 86.0846 40.515 85.7153C37.3712 84.8791 34.3449 83.6238 31.5199 81.9844C30.2761 81.2625 28.7011 81.4651 27.6894 82.4768L23.3035 86.8627C22.4822 87.6838 21.1459 87.684 20.3246 86.8627L13.1736 79.7116C12.7758 79.3137 12.5566 78.7848 12.5566 78.2221C12.5566 77.6594 12.7758 77.1305 13.1736 76.7327L17.5593 72.3469C18.5711 71.3354 18.7734 69.76 18.0517 68.5165C16.4123 65.6915 15.157 62.6651 14.3209 59.5214C13.9515 58.1329 12.6949 57.1632 11.265 57.1632H5.06796C3.90663 57.1632 2.96171 56.2182 2.96171 55.0567V44.9437C2.96171 43.7823 3.90663 42.8374 5.06796 42.8374H11.2654C12.6953 42.8374 13.9519 41.8677 14.3213 40.479C15.1574 37.3355 16.4125 34.3091 18.0521 31.4841C18.774 30.2406 18.5714 28.6652 17.5597 27.6537L13.1738 23.2675C12.776 22.8697 12.5568 22.3408 12.5568 21.7781C12.5568 21.2154 12.776 20.6865 13.1738 20.2886L20.3248 13.1375C21.1461 12.3162 22.4822 12.3164 23.3037 13.1375L27.6896 17.5234C28.7013 18.5351 30.2763 18.7375 31.5201 18.0158C34.345 16.3763 37.3714 15.1211 40.515 14.2849C41.9036 13.9156 42.8734 12.6592 42.8734 11.2291V5.03183C42.8734 3.8703 43.8183 2.92538 44.9796 2.92538H55.0927C56.2542 2.92538 57.1991 3.8703 57.1991 5.03183V11.2293C57.1991 12.6592 58.1688 13.9158 59.5573 14.2851C62.701 15.1213 65.7274 16.3765 68.5524 18.016C69.7956 18.7377 71.3711 18.5355 72.3829 17.5236L76.7688 13.1377C77.5901 12.3164 78.9262 12.3164 79.7475 13.1377L86.8985 20.2888C87.7197 21.1101 87.7197 22.4464 86.8985 23.2677L82.5127 27.6535C81.5012 28.665 81.2989 30.2404 82.0205 31.4839C83.6598 34.3087 84.9151 37.3351 85.7512 40.479C86.1207 41.8675 87.3772 42.8372 88.8071 42.8372H95.0045C96.1658 42.8372 97.1107 43.7821 97.1107 44.9435V55.0565C97.1107 56.2181 96.1658 57.163 95.0045 57.163H88.8071C87.3772 57.163 86.1207 58.1327 85.7512 59.5212C84.9151 62.6649 83.6598 65.6913 82.0205 68.5161C81.2987 69.7596 81.5012 71.335 82.5127 72.3465L86.8985 76.7323C87.7197 77.5536 87.7197 78.8899 86.8985 79.7112L85.0903 81.5194C84.5192 82.0905 84.5192 83.0168 85.0903 83.5879C85.6615 84.159 86.5875 84.1592 87.159 83.5879L88.9672 81.7797C90.9289 79.8178 90.9289 76.6256 88.9672 74.6639L84.5815 70.2782C84.5053 70.202 84.493 70.084 84.5506 69.9846C86.3203 66.9352 87.6756 63.6678 88.5783 60.2733C88.6076 60.1626 88.6996 60.0884 88.8071 60.0884H95.0045C97.7789 60.0884 100.036 57.8311 100.036 55.0565V44.9435C100.036 42.1689 97.7787 39.9118 95.0045 39.9118Z" fill="white"/>
<path d="M32.0279 25.8363C32.6752 25.3531 32.8082 24.4365 32.325 23.7891C31.8416 23.1418 30.9252 23.0088 30.2777 23.492C26.24 26.5062 22.8937 30.4635 20.6006 34.9359C18.1959 39.626 16.9766 44.6941 16.9766 50C16.9766 68.2291 31.807 83.0596 50.0361 83.0596C68.2654 83.0596 83.0959 68.2291 83.0959 50C83.0959 31.7709 68.2654 16.9404 50.0361 16.9404C45.2549 16.9404 40.642 17.9393 36.3254 19.9092C35.5904 20.2445 35.2666 21.1123 35.602 21.8471C35.9373 22.582 36.8051 22.9057 37.5398 22.5705C41.4725 20.7758 45.677 19.8658 50.0361 19.8658C66.6523 19.8658 80.1705 33.384 80.1705 50C80.1705 66.616 66.6523 80.1344 50.0361 80.1344C33.4201 80.1344 19.902 66.6162 19.902 50.0002C19.902 45.1629 21.0129 40.5437 23.2037 36.2709C25.2945 32.1934 28.3459 28.5852 32.0279 25.8363Z" fill="white"/>
<path d="M61.0749 51.0567C61.7657 51.476 62.6651 51.2561 63.0845 50.5656C64.5271 48.1895 65.2897 45.457 65.2897 42.6641C65.2897 38.6328 63.7317 34.8315 60.903 31.96C58.0773 29.0918 54.306 27.477 50.2833 27.4131C41.8661 27.275 34.9206 34.009 34.7857 42.4143C34.7151 46.811 36.5452 51.0246 39.8069 53.9746C41.6896 55.6776 42.8005 58.1104 42.8005 60.6498V68.2119C42.8005 70.6256 44.7642 72.5893 47.1778 72.5893H52.8954C55.3093 72.5893 57.273 70.6256 57.273 68.2119C57.273 68.2119 57.273 60.7512 57.273 60.6502C57.273 58.9227 57.8075 57.2322 58.7599 55.7615C59.1989 55.0834 59.0052 54.1779 58.3271 53.7389C57.6495 53.3 56.7435 53.4936 56.3042 54.1717C55.3142 55.7006 54.6911 57.4117 54.4698 59.1875H51.4993V50.7453H52.6165C53.4243 50.7453 54.0792 50.0904 54.0792 49.2826C54.0792 48.4748 53.4245 47.8199 52.6165 47.8199H47.4567C46.6489 47.8199 45.9941 48.4748 45.9941 49.2826C45.9941 50.0904 46.6489 50.7453 47.4567 50.7453H48.5739V59.1875H45.6042C45.254 56.3645 43.8995 53.7322 41.7692 51.8053C39.1329 49.4209 37.6536 46.0151 37.7107 42.4615C37.8196 35.6688 43.4444 30.2299 50.2368 30.3385C53.4872 30.3901 56.5351 31.6953 58.819 34.0135C61.1052 36.334 62.3644 39.4065 62.3644 42.6645C62.3644 44.9221 61.7485 47.1293 60.5839 49.0479C60.1646 49.7377 60.3845 50.6375 61.0749 51.0567ZM45.7257 62.1129H54.3474V68.2119C54.3474 69.0125 53.6958 69.6639 52.8952 69.6639H47.1776C46.3771 69.6639 45.7257 69.0125 45.7257 68.2119V62.1129Z" fill="white"/>
</g>
<defs>
<clipPath id="clip0">
<rect width="100" height="100" fill="white" transform="translate(0.0361328)"/>
</clipPath>
</defs>
</svg>
