<svg width="30" height="35" viewBox="0 0 30 35" fill="none" xmlns="http://www.w3.org/2000/svg">
<path d="M28 14.7251C28 24.6327 15 33.1249 15 33.1249C15 33.1249 2 24.6327 2 14.7251C2 11.3467 3.36964 8.10668 5.80761 5.71778C8.24558 3.32889 11.5522 1.98682 15 1.98682C18.4478 1.98682 21.7544 3.32889 24.1924 5.71778C26.6304 8.10668 28 11.3467 28 14.7251Z" stroke="white" stroke-width="3" stroke-linecap="round" stroke-linejoin="round"/>
<path d="M15 18.9712C17.3932 18.9712 19.3333 17.0702 19.3333 14.7251C19.3333 12.38 17.3932 10.479 15 10.479C12.6067 10.479 10.6666 12.38 10.6666 14.7251C10.6666 17.0702 12.6067 18.9712 15 18.9712Z" stroke="white" stroke-width="3" stroke-linecap="round" stroke-linejoin="round"/>
</svg>
