<svg id="Layer_1" data-name="Layer 1" xmlns="http://www.w3.org/2000/svg" viewBox="0 0 690 100"><defs><style>.cls-1{fill:#fff;}</style></defs><path class="cls-1" d="M8.58,31.22v-.15c0-15.61,12-28.69,29.08-28.69S66.58,15.3,66.58,30.91v.16c0,15.61-12,28.68-29.08,28.68S8.58,46.83,8.58,31.22Zm47.78,0v-.15c0-10.78-7.84-19.73-18.86-19.73S18.8,20.13,18.8,30.91v.16c0,10.77,7.85,19.65,18.86,19.65S56.36,42,56.36,31.22Z"/><path class="cls-1" d="M141.55,2.48h10.06V59.76H141.55Z"/><path class="cls-1" d="M164.75,31.16V31c0-15.64,12.07-28.74,29.15-28.74s29,12.94,29,28.58V31c0,15.65-12.07,28.75-29.14,28.75S164.75,46.81,164.75,31.16Zm47.89,0V31c0-10.8-7.86-19.77-18.9-19.77S175,20,175,30.84V31c0,10.8,7.86,19.7,18.9,19.7S212.64,42,212.64,31.16Z"/><path class="cls-1" d="M236,2.48h9.33L276,42.08V2.48h9.9V59.76h-8.42L245.92,19V59.76H236Z"/><path class="cls-1" d="M112.94,38.08c7.94-2.3,13.58-7.94,13.58-17.35v-.16a17.3,17.3,0,0,0-4.74-12.36c-3.68-3.6-9.33-5.73-16.53-5.73H79.72v9.17h24.71c7.45,0,11.87,3.35,11.87,9.49v.16c0,5.81-4.59,9.58-11.79,9.58H79.72V59.76H89.79v-20h12.6l14.07,20h12Z"/><path class="cls-1" d="M376.38,6.29H354.74V2.36h47.9V6.29H381V59.64h-4.62Z"/><path class="cls-1" d="M468.72,2.36h4.62V55.71h33.32v3.93H468.72Z"/><path class="cls-1" d="M517.61,2.36h4.62V55.71h33.32v3.93H517.61Z"/><path class="cls-1" d="M597,2.36h-4.06L566.5,60.05h4.38l5.72-12.71h36.49l5.72,12.71h4.63ZM578.34,43.49,594.89,7l16.47,36.46Z"/><path class="cls-1" d="M299.45,50.73l2.94-3.1C309,53.27,315.15,55.9,324,55.9c9,0,15.26-4.7,15.26-11.06v-.16c0-5.88-3.36-9.31-17.08-11.85-14.49-2.71-20.35-7.24-20.35-15.67V17c0-8.27,8.19-14.64,19.41-14.64,8.79,0,14.57,2.23,20.69,6.76l-2.84,3.27a27.27,27.27,0,0,0-18-6.29c-8.88,0-14.75,4.69-14.75,10.5v.16c0,5.89,3.28,9.47,17.6,12.17,14,2.63,19.84,7.24,19.84,15.35v.16c0,9-8.37,15.2-20,15.2C314.12,59.64,306.7,56.69,299.45,50.73Z"/><path class="cls-1" d="M418.21,55.71v-23h35.57V28.79H413.59V59.64h44.18V55.71ZM457.77,2.36H413.59V6.29h44.18Z"/><path class="cls-1" d="M660.73,35.38c10.47-1.31,18.19-6.79,18.19-16.37v-.16a14.53,14.53,0,0,0-4.71-10.64c-3.72-3.43-9.84-5.64-17.47-5.64H634.39V6.49h22.08c11.27,0,17.83,4.83,17.83,12.52v.17c0,8.26-7.71,13.09-18.09,13.09H634.39V59.84H639V36.11h16.58l19.79,23.73h5.85Z"/><path class="cls-1" d="M244.7,76.74h1.79l7.72,17.08h-2.06l-2-4.48h-9.23l-2,4.48h-2Zm4.72,10.85L245.57,79l-3.88,8.62Z"/><path class="cls-1" d="M255.87,87.62v-.05a6.52,6.52,0,0,1,11.43-4.31l-1.23,1.31a5.08,5.08,0,0,0-3.81-1.89,4.62,4.62,0,0,0-4.48,4.84v0a4.68,4.68,0,0,0,4.6,4.87,5.16,5.16,0,0,0,3.83-1.87l1.19,1.12a6.48,6.48,0,0,1-11.53-4.07Z"/><path class="cls-1" d="M269.34,87.62v-.05a6.52,6.52,0,0,1,11.43-4.31l-1.23,1.31a5.06,5.06,0,0,0-3.8-1.89,4.61,4.61,0,0,0-4.48,4.84v0a4.68,4.68,0,0,0,4.6,4.87,5.13,5.13,0,0,0,3.82-1.87l1.19,1.12a6.48,6.48,0,0,1-11.53-4.07Z"/><path class="cls-1" d="M282.82,87.59v0c0-3.61,2.54-6.52,6-6.52,3.71,0,5.84,3,5.84,6.61a5.92,5.92,0,0,1,0,.61H284.7a4.38,4.38,0,0,0,4.41,4.24,5.21,5.21,0,0,0,3.95-1.77l1.16,1a6.44,6.44,0,0,1-5.16,2.35A6.22,6.22,0,0,1,282.82,87.59Zm9.95-.72c-.19-2.28-1.5-4.26-4-4.26-2.18,0-3.82,1.81-4.07,4.26Z"/><path class="cls-1" d="M298.11,76.14H300V93.82h-1.86Z"/><path class="cls-1" d="M303.53,87.59v0c0-3.61,2.55-6.52,6-6.52,3.71,0,5.84,3,5.84,6.61a4,4,0,0,1,0,.61h-9.93a4.38,4.38,0,0,0,4.41,4.24,5.21,5.21,0,0,0,3.95-1.77l1.16,1a6.44,6.44,0,0,1-5.16,2.35A6.23,6.23,0,0,1,303.53,87.59Zm10-.72c-.2-2.28-1.5-4.26-4-4.26-2.18,0-3.83,1.81-4.07,4.26Z"/><path class="cls-1" d="M318.65,81.3h1.87v3.27a5.35,5.35,0,0,1,5.11-3.49v2h-.15c-2.73,0-5,2-5,5.74v5h-1.87Z"/><path class="cls-1" d="M326.92,90.19v0c0-2.64,2.18-4,5.35-4a13.07,13.07,0,0,1,3.85.54v-.44c0-2.25-1.38-3.42-3.73-3.42a8.6,8.6,0,0,0-3.8.93L328,82.17a10.34,10.34,0,0,1,4.55-1,5.51,5.51,0,0,1,4.05,1.38,4.94,4.94,0,0,1,1.28,3.66v7.65h-1.79V91.93a5.48,5.48,0,0,1-4.53,2.16C329.27,94.09,326.92,92.75,326.92,90.19Zm9.22-1V88a12.81,12.81,0,0,0-3.68-.54c-2.35,0-3.65,1-3.65,2.6v0c0,1.58,1.45,2.5,3.14,2.5C334.26,92.61,336.14,91.2,336.14,89.22Z"/><path class="cls-1" d="M342.42,90.5V82.94h-1.74V81.3h1.74V77.52h1.87V81.3h4v1.64h-4v7.32a1.85,1.85,0,0,0,2.11,2.08,3.94,3.94,0,0,0,1.81-.43V93.5A4.65,4.65,0,0,1,346,94,3.19,3.19,0,0,1,342.42,90.5Z"/><path class="cls-1" d="M351.61,76.5h2.13v2.06h-2.13Zm.12,4.8h1.86V93.82h-1.86Z"/><path class="cls-1" d="M357.93,81.3h1.87v2.18A4.73,4.73,0,0,1,364.08,81c3,0,4.8,2,4.8,5v7.78H367V86.51c0-2.33-1.26-3.78-3.47-3.78a3.68,3.68,0,0,0-3.75,3.92v7.17h-1.87Z"/><path class="cls-1" d="M372.71,96l.85-1.45a8,8,0,0,0,4.82,1.59c2.76,0,4.56-1.52,4.56-4.45V90.21A6,6,0,0,1,378,92.85,5.79,5.79,0,0,1,372.13,87v0a5.93,5.93,0,0,1,10.78-3.39V81.3h1.87V91.64a6.06,6.06,0,0,1-1.6,4.43,6.57,6.57,0,0,1-4.77,1.67A9.86,9.86,0,0,1,372.71,96ZM383,87v0a4.39,4.39,0,0,0-4.6-4.24,4.14,4.14,0,0,0-4.33,4.21v0a4.23,4.23,0,0,0,4.33,4.26A4.42,4.42,0,0,0,383,87Z"/><path class="cls-1" d="M396.53,76.87h12.26v1.74H398.45V84.4h9.25v1.74h-9.25v5.94h10.46v1.74H396.53Z"/><path class="cls-1" d="M412.45,81.3h1.87v2.18A4.73,4.73,0,0,1,418.61,81c3,0,4.79,2,4.79,5v7.78h-1.86V86.51c0-2.33-1.26-3.78-3.47-3.78a3.68,3.68,0,0,0-3.75,3.92v7.17h-1.87Z"/><path class="cls-1" d="M428,90.5V82.94h-1.75V81.3H428V77.52h1.86V81.3h4v1.64h-4v7.32A1.85,1.85,0,0,0,432,92.34a3.94,3.94,0,0,0,1.81-.43V93.5a4.65,4.65,0,0,1-2.25.54A3.19,3.19,0,0,1,428,90.5Z"/><path class="cls-1" d="M436,87.59v0c0-3.61,2.54-6.52,6-6.52,3.7,0,5.83,3,5.83,6.61a5.92,5.92,0,0,1,0,.61h-9.93a4.38,4.38,0,0,0,4.41,4.24,5.21,5.21,0,0,0,3.95-1.77l1.16,1a6.46,6.46,0,0,1-5.16,2.35A6.23,6.23,0,0,1,436,87.59Zm10-.72c-.2-2.28-1.5-4.26-4-4.26-2.18,0-3.83,1.81-4.07,4.26Z"/><path class="cls-1" d="M451.15,81.3H453v3.27a5.34,5.34,0,0,1,5.11-3.49v2H458c-2.74,0-5,2-5,5.74v5h-1.87Z"/><path class="cls-1" d="M461,81.3h1.86v2.52a5.64,5.64,0,0,1,4.8-2.79,6.11,6.11,0,0,1,6,6.49v0c0,4.09-3,6.52-6,6.52a5.64,5.64,0,0,1-4.8-2.67v6.27H461Zm10.72,6.29v0c0-3-2-4.85-4.4-4.85a4.67,4.67,0,0,0-4.53,4.82v0a4.66,4.66,0,0,0,4.53,4.85C469.71,92.42,471.69,90.62,471.69,87.59Z"/><path class="cls-1" d="M477.06,81.3h1.86v3.27A5.35,5.35,0,0,1,484,81.08v2h-.15c-2.73,0-5,2-5,5.74v5h-1.86Z"/><path class="cls-1" d="M486.92,76.5h2.13v2.06h-2.13Zm.12,4.8h1.86V93.82H487Z"/><path class="cls-1" d="M492.2,92.22l.94-1.33a7.32,7.32,0,0,0,4.34,1.6c1.5,0,2.59-.78,2.59-2v0c0-1.26-1.48-1.74-3.12-2.2-2-.56-4.14-1.24-4.14-3.54v0c0-2.15,1.79-3.58,4.26-3.58a8.53,8.53,0,0,1,4.5,1.38l-.84,1.41A7.05,7.05,0,0,0,497,82.65c-1.48,0-2.42.78-2.42,1.82v0c0,1.19,1.55,1.65,3.22,2.15,1.94.59,4,1.34,4,3.59v0c0,2.37-2,3.75-4.46,3.75A8.61,8.61,0,0,1,492.2,92.22Z"/><path class="cls-1" d="M504.53,87.59v0c0-3.61,2.54-6.52,6-6.52,3.7,0,5.84,3,5.84,6.61a4,4,0,0,1,0,.61h-9.93a4.38,4.38,0,0,0,4.41,4.24,5.21,5.21,0,0,0,3.95-1.77l1.16,1a6.44,6.44,0,0,1-5.16,2.35A6.23,6.23,0,0,1,504.53,87.59Zm10-.72c-.2-2.28-1.5-4.26-4-4.26-2.18,0-3.83,1.81-4.07,4.26Z"/><path class="cls-1" d="M527.24,76.87h5.88c5.33,0,9,3.65,9,8.42v0c0,4.77-3.68,8.48-9,8.48h-5.88Zm1.91,1.76V92.05h4c4.29,0,7-2.91,7-6.66v0c0-3.75-2.74-6.71-7-6.71Z"/><path class="cls-1" d="M545.92,76.5h2.13v2.06h-2.13Zm.12,4.8h1.87V93.82H546Z"/><path class="cls-1" d="M552.1,96l.85-1.45a8,8,0,0,0,4.82,1.59c2.76,0,4.55-1.52,4.55-4.45V90.21a6,6,0,0,1-4.92,2.64A5.79,5.79,0,0,1,551.52,87v0A5.81,5.81,0,0,1,557.4,81a5.88,5.88,0,0,1,4.9,2.52V81.3h1.86V91.64a6,6,0,0,1-1.6,4.43,6.54,6.54,0,0,1-4.77,1.67A9.83,9.83,0,0,1,552.1,96Zm10.27-9v0a4.39,4.39,0,0,0-4.6-4.24,4.14,4.14,0,0,0-4.34,4.21v0a4.24,4.24,0,0,0,4.34,4.26A4.42,4.42,0,0,0,562.37,87Z"/><path class="cls-1" d="M568.38,76.5h2.13v2.06h-2.13Zm.12,4.8h1.87V93.82H568.5Z"/><path class="cls-1" d="M575.36,90.5V82.94h-1.74V81.3h1.74V77.52h1.86V81.3h4v1.64h-4v7.32a1.85,1.85,0,0,0,2.11,2.08,4,4,0,0,0,1.82-.43V93.5a4.71,4.71,0,0,1-2.25.54A3.19,3.19,0,0,1,575.36,90.5Z"/><path class="cls-1" d="M583.55,90.19v0c0-2.64,2.18-4,5.36-4a13.17,13.17,0,0,1,3.85.54v-.44c0-2.25-1.38-3.42-3.73-3.42a8.68,8.68,0,0,0-3.81.93l-.55-1.53a10.31,10.31,0,0,1,4.55-1,5.48,5.48,0,0,1,4,1.38,4.94,4.94,0,0,1,1.29,3.66v7.65h-1.79V91.93a5.5,5.5,0,0,1-4.53,2.16C585.9,94.09,583.55,92.75,583.55,90.19Zm9.23-1V88a12.92,12.92,0,0,0-3.68-.54c-2.35,0-3.66,1-3.66,2.6v0c0,1.58,1.45,2.5,3.15,2.5C590.89,92.61,592.78,91.2,592.78,89.22Z"/><path class="cls-1" d="M598.7,76.14h1.86V93.82H598.7Z"/><path class="cls-1" d="M605,76.5h2.13v2.06H605Zm.12,4.8h1.86V93.82h-1.86Z"/><path class="cls-1" d="M610.54,92.63l8.31-9.76h-8V81.3H621.4v1.18l-8.34,9.76h8.34v1.58H610.54Z"/><path class="cls-1" d="M623.8,90.19v0c0-2.64,2.18-4,5.35-4a13.07,13.07,0,0,1,3.85.54v-.44c0-2.25-1.38-3.42-3.73-3.42a8.63,8.63,0,0,0-3.8.93l-.56-1.53a10.35,10.35,0,0,1,4.56-1,5.5,5.5,0,0,1,4,1.38,4.94,4.94,0,0,1,1.29,3.66v7.65H633V91.93a5.48,5.48,0,0,1-4.53,2.16C626.15,94.09,623.8,92.75,623.8,90.19Zm9.23-1V88a12.92,12.92,0,0,0-3.68-.54c-2.35,0-3.66,1-3.66,2.6v0c0,1.58,1.45,2.5,3.15,2.5C631.14,92.61,633,91.2,633,89.22Z"/><path class="cls-1" d="M639.31,90.5V82.94h-1.75V81.3h1.75V77.52h1.86V81.3h4v1.64h-4v7.32a1.85,1.85,0,0,0,2.11,2.08,4,4,0,0,0,1.82-.43V93.5a4.72,4.72,0,0,1-2.26.54A3.19,3.19,0,0,1,639.31,90.5Z"/><path class="cls-1" d="M648.49,76.5h2.13v2.06h-2.13Zm.12,4.8h1.87V93.82h-1.87Z"/><path class="cls-1" d="M654,87.62v-.05a6.53,6.53,0,0,1,13.05,0v0a6.5,6.5,0,0,1-6.56,6.54A6.41,6.41,0,0,1,654,87.62Zm11.14,0v-.05a4.74,4.74,0,0,0-4.65-4.89A4.62,4.62,0,0,0,656,87.52v0a4.7,4.7,0,0,0,4.63,4.87A4.62,4.62,0,0,0,665.18,87.62Z"/><path class="cls-1" d="M670.47,81.3h1.86v2.18A4.76,4.76,0,0,1,676.62,81c3,0,4.8,2,4.8,5v7.78h-1.87V86.51c0-2.33-1.26-3.78-3.46-3.78a3.68,3.68,0,0,0-3.76,3.92v7.17h-1.86Z"/></svg>