<svg width="100" height="100" viewBox="0 0 100 100" fill="none" xmlns="http://www.w3.org/2000/svg">
<g clip-path="url(#clip0)">
<path d="M94.7176 45.2359H92.7816L81.9002 14.8287H91.5277C94.1414 14.8287 96.2678 12.7023 96.2678 10.0885C96.2678 7.47461 94.1414 5.34824 91.5277 5.34824H58.9023C57.2025 2.16895 53.8504 0 50 0C46.1496 0 42.7975 2.16895 41.0977 5.34844H8.47226C5.85859 5.34844 3.73223 7.4748 3.73223 10.0887C3.73223 12.7025 5.85859 14.8289 8.47226 14.8289H18.0998L7.21836 45.2359H5.28242C3.84082 45.2359 2.66797 46.4088 2.66797 47.8504C2.66797 51.0281 3.54043 54.1338 5.19102 56.8316C5.6123 57.5203 6.5123 57.7373 7.20137 57.3158C7.89023 56.8943 8.10703 55.9943 7.68555 55.3055C6.36973 53.1549 5.65 50.6908 5.5957 48.1604H34.7561C34.6746 51.9785 33.0254 55.6582 30.2441 58.2727C27.3975 60.9486 23.7361 62.1572 19.8992 62.1572C17.0652 62.1572 14.3264 61.3307 11.9789 59.767C11.307 59.3193 10.3992 59.5012 9.95137 60.1732C9.50371 60.8453 9.68555 61.7531 10.3576 62.2008C13.1869 64.0855 16.4863 65.0816 19.8992 65.0816C23.7592 65.0816 27.4531 64.0689 30.5982 61.7703C33.6197 59.5621 35.8855 56.3799 36.9613 52.7937C37.4418 51.1924 37.6838 49.5219 37.6838 47.8502C37.6838 46.4086 36.5109 45.2357 35.0693 45.2357H33.1334L22.2523 14.8287H41.0979C42.0416 16.5939 43.4951 18.0469 45.26 18.9908V75.173C42.5004 76.8019 40.6439 79.8049 40.6439 83.2348V89.6666H20.9955C18.0396 89.6666 15.6348 92.0715 15.6348 95.0273V98.5381C15.6348 99.3457 16.2895 100 17.0971 100H82.9031C83.7107 100 84.3654 99.3457 84.3654 98.5381V95.0273C84.3654 92.0713 81.9605 89.6666 79.0047 89.6666H71.1182C70.3105 89.6666 69.6559 90.3213 69.6559 91.1289C69.6559 91.9365 70.3105 92.5912 71.1182 92.5912H79.0047C80.348 92.5912 81.441 93.684 81.441 95.0275V97.076H18.5592V95.0275C18.5592 93.6842 19.6521 92.5912 20.9955 92.5912H64.3771C65.1848 92.5912 65.8394 91.9365 65.8394 91.1289C65.8394 90.3213 65.1848 89.6666 64.3771 89.6666H59.3561V83.2348C59.3561 79.8049 57.4996 76.8019 54.74 75.173V18.9906C56.5049 18.0467 57.9584 16.5938 58.9021 14.8285H77.7475L66.8662 45.2359H64.9303C63.4887 45.2359 62.3158 46.4088 62.3158 47.8504C62.3158 57.3518 70.0459 65.0818 79.5475 65.0818C81.4728 65.0826 83.4002 64.8789 85.268 64.2904C87.0596 63.726 88.7547 62.8644 90.2693 61.7537C93.2926 59.5365 95.5559 56.3432 96.6232 52.7473C97.0945 51.1602 97.3318 49.5059 97.3318 47.8504C97.332 46.4088 96.1592 45.2359 94.7176 45.2359ZM30.0275 45.2359H10.3244L20.176 17.7062L30.0275 45.2359ZM40.0783 11.9041H8.47226C7.47109 11.9041 6.65664 11.0896 6.65664 10.0885C6.65664 9.08731 7.47109 8.27285 8.47226 8.27285H40.0783C39.9707 8.8623 39.9115 9.46855 39.9115 10.0885C39.9115 10.7084 39.9707 11.3146 40.0783 11.9041ZM56.4316 83.2346V89.6664H43.5684V83.2346C43.5684 79.6881 46.4535 76.8029 50 76.8029C53.5465 76.8029 56.4316 79.6881 56.4316 83.2346ZM48.1844 74.0568V20.0125C48.7736 20.1201 49.3803 20.177 50 20.177C50.6197 20.177 51.2266 20.1199 51.8156 20.0125V74.0568C51.2279 73.9408 50.6211 73.8785 50 73.8785C49.3789 73.8785 48.7721 73.9406 48.1844 74.0568ZM50 17.2525C46.0498 17.2525 42.8359 14.0389 42.8359 10.0885C42.8359 6.13828 46.0496 2.92441 50 2.92441C53.9504 2.92441 57.1641 6.13809 57.1641 10.0885C57.1641 14.0389 53.9504 17.2525 50 17.2525ZM59.9217 11.9041C60.0293 11.3146 60.0885 10.7084 60.0885 10.0885C60.0885 9.46855 60.0293 8.8623 59.9217 8.27285H91.5277C92.5289 8.27285 93.3434 9.08731 93.3434 10.0885C93.3434 11.0896 92.5289 11.9041 91.5277 11.9041H59.9217ZM79.824 17.7062L89.6756 45.2359H69.9725L79.824 17.7062ZM80.1006 62.1574H79.5475C71.7621 62.1574 65.4092 55.9068 65.2437 48.1604H94.4043C94.2389 55.9068 87.8859 62.1574 80.1006 62.1574Z" fill="white"/>
</g>
<defs>
<clipPath id="clip0">
<rect width="100" height="100" fill="white"/>
</clipPath>
</defs>
</svg>
