<svg width="100" height="100" viewBox="0 0 100 100" fill="none" xmlns="http://www.w3.org/2000/svg">
<g clip-path="url(#clip0)">
<path d="M96.3961 14.6323C97.0049 14.0235 97.21 13.1395 96.9313 12.3251C96.6524 11.5106 95.9488 10.9376 95.0947 10.8294L87.2201 9.83329L86.224 1.95888C86.116 1.10497 85.5432 0.40126 84.7287 0.122354C83.9141 -0.156553 83.0299 0.0485256 82.4211 0.657315L68.643 14.4358C68.4299 14.6489 68.2682 14.9001 68.157 15.1708C61.4602 10.9901 53.7156 8.75009 45.6248 8.75009C34.225 8.75009 23.5074 13.1895 15.4467 21.2505C7.38555 29.3114 2.94629 40.029 2.94629 51.4288C2.94629 62.8286 7.38555 73.5462 15.4467 81.6071C16.7771 82.9376 18.1813 84.1671 19.6477 85.2966L17.4854 92.6022C16.584 95.6478 18.3283 98.8589 21.3738 99.7603C21.915 99.9204 22.4676 99.9999 23.0166 99.9999C23.9641 99.9999 24.9023 99.7636 25.7584 99.2987C27.1104 98.5642 28.0955 97.3472 28.532 95.8718L29.9326 91.1395C34.8625 93.0864 40.1648 94.1073 45.6248 94.1073C51.0848 94.1073 56.3871 93.0864 61.3172 91.1395L62.7178 95.8718C63.1543 97.3472 64.1393 98.5642 65.4912 99.2985C66.3473 99.7636 67.2854 99.9999 68.233 99.9999C68.782 99.9999 69.3344 99.9206 69.8758 99.7603C72.4686 98.9929 74.1967 96.4815 73.9846 93.789C73.9213 92.9853 73.2188 92.3849 72.4149 92.4483C71.6111 92.5116 71.0109 93.2145 71.0742 94.0183C71.1785 95.3448 70.3262 96.5823 69.0471 96.9608C67.5648 97.3993 65.9541 96.5194 65.5172 95.0431C65.5152 95.0368 64.0143 89.9649 64.0143 89.9649C65.7648 89.128 67.4598 88.1685 69.0891 87.0919L69.2897 87.7694C69.5184 88.5425 70.3305 88.9841 71.1037 88.7548C71.8768 88.5261 72.318 87.7138 72.0891 86.9409L71.6023 85.2964C73.0688 84.1669 74.4729 82.9372 75.8033 81.6067C83.8645 73.5458 88.3037 62.8282 88.3037 51.4284C88.3037 43.3388 86.0635 35.5954 81.8836 28.8991C82.1545 28.7882 82.4047 28.6237 82.6178 28.4106L96.3961 14.6323ZM83.5022 3.70497L84.376 10.6132L72.1945 22.7946L70.9613 16.2462L83.5022 3.70497ZM25.7326 95.0433C25.2941 96.5245 23.6875 97.4007 22.2025 96.961C20.7006 96.5165 19.8404 94.9327 20.2848 93.431L22.1609 87.0921C23.7902 88.1688 25.485 89.1282 27.2355 89.9651C27.2355 89.9651 25.7336 95.0399 25.7326 95.0433ZM85.3842 51.4288C85.3842 73.3521 67.5482 91.188 45.625 91.188C23.7018 91.188 5.86582 73.3521 5.86582 51.4288C5.86582 29.5054 23.7016 11.6696 45.6248 11.6696C54.133 11.6696 62.0231 14.3591 68.4957 18.9288L69.6945 25.2946L68.7445 26.2446C62.652 20.647 54.5311 17.2241 45.6248 17.2241C26.7643 17.2241 11.4201 32.5683 11.4201 51.4288C11.4201 70.2892 26.7643 85.6333 45.6248 85.6333C64.4854 85.6333 79.8295 70.2892 79.8295 51.4288C79.8295 42.5226 76.4066 34.4016 70.809 28.3091L71.759 27.3591L78.124 28.5577C82.694 35.0306 85.3842 42.9202 85.3842 51.4288ZM30.4744 32.0765C30.9332 32.7393 31.843 32.9044 32.5055 32.4454C36.3693 29.7696 40.9061 28.3554 45.6248 28.3554C51.4619 28.3554 56.7988 30.5352 60.8668 34.1224L56.7473 38.2419C53.741 35.7024 49.859 34.1688 45.6248 34.1688C36.1076 34.1688 28.3648 41.9116 28.3648 51.4288C28.3648 60.946 36.1076 68.6888 45.6248 68.6888C55.142 68.6888 62.885 60.946 62.885 51.4288C62.885 47.1946 61.3514 43.3124 58.8119 40.3063L62.9315 36.1868C66.5184 40.2548 68.6984 45.5917 68.6984 51.4288C68.6984 64.1515 58.3479 74.502 45.625 74.502C32.9022 74.502 22.5516 64.1515 22.5516 51.4288C22.5516 46.1124 24.4033 40.9239 27.7652 36.819C28.2762 36.1954 28.1848 35.2757 27.5609 34.7647C26.9377 34.254 26.018 34.3454 25.5068 34.969C21.7184 39.5942 19.6322 45.4397 19.6322 51.4288C19.6322 65.7612 31.2926 77.4216 45.625 77.4216C59.9574 77.4216 71.6178 65.7612 71.6178 51.4288C71.6178 44.7866 69.1123 38.7196 64.9984 34.1198L68.7445 30.3735C73.8145 35.9358 76.9102 43.3274 76.9102 51.4286C76.9102 68.6792 62.8758 82.7136 45.625 82.7136C28.3742 82.7136 14.3398 68.6792 14.3398 51.4286C14.3398 34.178 28.3742 20.1434 45.625 20.1434C53.7264 20.1434 61.118 23.239 66.6803 28.3091L62.934 32.0554C58.3342 27.9415 52.2672 25.4358 45.625 25.4358C40.3094 25.4358 35.198 27.0298 30.8436 30.0452C30.1807 30.5044 30.0152 31.4138 30.4744 32.0765ZM44.5926 52.4608C44.8777 52.7458 45.2514 52.8884 45.6248 52.8884C45.9982 52.8884 46.3719 52.7458 46.657 52.4608L50.5275 48.5903C51.0131 49.4257 51.2926 50.3948 51.2926 51.4286C51.2926 54.5538 48.75 57.0964 45.6246 57.0964C42.4994 57.0964 39.9568 54.5538 39.9568 51.4286C39.9568 48.3032 42.4994 45.7606 45.6246 45.7606C46.6584 45.7606 47.6275 46.0401 48.4629 46.5257L44.5922 50.3964C44.0225 50.9665 44.0225 51.8909 44.5926 52.4608ZM50.5725 44.4165C49.1727 43.4259 47.4662 42.8413 45.6248 42.8413C40.8898 42.8413 37.0377 46.6935 37.0377 51.4286C37.0377 56.1636 40.8898 60.0159 45.6248 60.0159C50.3598 60.0159 54.2121 56.1636 54.2121 51.4286C54.2121 49.5872 53.6275 47.8806 52.6369 46.4808L56.7391 42.3786C58.7543 44.8487 59.9654 47.9995 59.9654 51.4284C59.9654 59.3358 53.5322 65.7688 45.6248 65.7688C37.7176 65.7688 31.2844 59.3356 31.2844 51.4284C31.2844 43.5212 37.7176 37.088 45.6248 37.088C49.0539 37.088 52.2045 38.2991 54.6746 40.3142L50.5725 44.4165ZM80.8076 26.0923L74.259 24.8591L86.4404 12.6776L93.3484 13.5515L80.8076 26.0923Z" fill="white"/>
</g>
<defs>
<clipPath id="clip0">
<rect width="100" height="100" fill="white"/>
</clipPath>
</defs>
</svg>
