<svg width="100" height="100" viewBox="0 0 100 100" fill="none" xmlns="http://www.w3.org/2000/svg">
<g clip-path="url(#clip0)">
<path d="M53.0207 39.6441C53.8285 39.6441 54.483 38.9894 54.483 38.1818V34.7822C54.483 33.9746 53.8283 33.3199 53.0207 33.3199C52.213 33.3199 51.5583 33.9746 51.5583 34.7822V38.1818C51.5583 38.9892 52.2128 39.6441 53.0207 39.6441Z" fill="white"/>
<path d="M51.5583 80.2848V83.6844C51.5583 84.492 52.213 85.1467 53.0207 85.1467C53.8285 85.1467 54.483 84.492 54.483 83.6844V80.2848C54.483 79.4771 53.8283 78.8224 53.0207 78.8224C52.2128 78.8224 51.5583 79.4771 51.5583 80.2848Z" fill="white"/>
<path d="M39.1687 43.3137L36.765 40.9098C36.1937 40.3389 35.2677 40.3387 34.697 40.9098C34.1258 41.4808 34.1258 42.4068 34.6968 42.9779L37.1006 45.3818C37.3861 45.6674 37.7603 45.8101 38.1347 45.8101C38.509 45.8101 38.8832 45.6674 39.1687 45.3818C39.7398 44.8105 39.7398 43.8848 39.1687 43.3137Z" fill="white"/>
<path d="M68.9401 73.0849C68.3692 72.5137 67.4432 72.5139 66.8721 73.0849C66.3011 73.656 66.301 74.582 66.8723 75.1531L69.2762 77.557C69.5616 77.8426 69.936 77.9853 70.3102 77.9853C70.6844 77.9853 71.0588 77.8426 71.3444 77.557C71.9155 76.9859 71.9155 76.06 71.3442 75.4891L68.9401 73.0849Z" fill="white"/>
<path d="M28.5692 57.7709C27.7614 57.7709 27.1069 58.4256 27.1069 59.2332C27.1069 60.0408 27.7616 60.6955 28.5692 60.6955H31.969C32.7769 60.6955 33.4314 60.0408 33.4314 59.2332C33.4314 58.4256 32.7767 57.7709 31.969 57.7709H28.5692Z" fill="white"/>
<path d="M74.0719 57.7709C73.2643 57.7709 72.6096 58.4256 72.6096 59.2332C72.6096 60.0408 73.2643 60.6955 74.0719 60.6955H77.4717C78.2793 60.6955 78.934 60.0408 78.934 59.2332C78.934 58.4256 78.2793 57.7709 77.4717 57.7709H74.0719Z" fill="white"/>
<path d="M37.1006 73.085L34.6968 75.4889C34.1258 76.06 34.1258 76.986 34.697 77.5568C34.9824 77.8424 35.3568 77.9852 35.7308 77.9852C36.1051 77.9852 36.4795 77.8424 36.765 77.5568L39.1687 75.1529C39.7398 74.5818 39.7398 73.6559 39.1685 73.0848C38.5978 72.5137 37.6719 72.5139 37.1006 73.085Z" fill="white"/>
<path d="M71.3442 40.9098C70.773 40.3387 69.8472 40.3387 69.2761 40.9098L66.8722 43.3137C66.3011 43.8848 66.3011 44.8107 66.8722 45.3816C67.1577 45.6672 67.5321 45.81 67.9063 45.81C68.2806 45.81 68.6548 45.6672 68.9405 45.3816L71.3444 42.9777C71.9153 42.4066 71.9153 41.4807 71.3442 40.9098Z" fill="white"/>
<path d="M57.733 18.7404V14.6584C59.599 14.2895 61.0109 12.6418 61.0109 10.6691V4.06758C61.0109 1.8248 59.1861 0 56.9431 0H49.0293C46.7865 0 44.9617 1.8248 44.9617 4.06758V10.6691C44.9617 12.6654 46.4084 14.327 48.3078 14.6689V18.7391C42.2253 19.4418 36.3824 21.5 31.1912 24.7975C30.5095 25.2307 30.308 26.1342 30.7408 26.8158C31.1738 27.4979 32.0779 27.699 32.7593 27.2662C38.8103 23.4227 45.8164 21.3912 53.0205 21.3912C73.8865 21.3912 90.8625 38.367 90.8625 59.2332C90.8625 80.0994 73.8865 97.0752 53.0205 97.0752C32.1542 97.0752 15.1783 80.0994 15.1783 59.2332C15.1783 48.6182 19.6791 38.4248 27.5269 31.2668C28.1234 30.7227 28.1662 29.7977 27.6218 29.201C27.0777 28.6041 26.1527 28.5619 25.5558 29.1061C17.1021 36.8168 12.2537 47.7977 12.2537 59.2332C12.2537 81.7121 30.5416 100 53.0205 100C75.4994 100 93.7873 81.7121 93.7873 59.2332C93.7871 38.3482 77.9998 21.0842 57.733 18.7404ZM54.8082 18.5078C54.2152 18.482 53.6197 18.4664 53.0203 18.4664C52.4228 18.4664 51.8269 18.4809 51.2324 18.5068V14.7367H54.8082V18.5078ZM49.0293 11.8119C48.399 11.8119 47.8865 11.2992 47.8865 10.6689V4.06738C47.8865 3.4373 48.3992 2.92461 49.0293 2.92461H56.9431C57.5734 2.92461 58.0863 3.4373 58.0863 4.06738V10.6689C58.0863 11.2992 57.5736 11.8119 56.9431 11.8119H49.0293Z" fill="white"/>
<path d="M82.8574 63.0225C82.7592 63.824 83.3293 64.5537 84.1309 64.652C84.9305 64.75 85.6619 64.1801 85.7604 63.3785L85.8037 63.0238C85.9467 61.7746 86.0193 60.4994 86.0193 59.2334C86.0193 41.0377 71.2162 26.2344 53.0205 26.2344C34.8248 26.2344 20.0215 41.0377 20.0215 59.2334C20.0215 77.4291 34.8248 92.2324 53.0205 92.2324C67.0336 92.2324 79.5549 83.3498 84.1779 70.1293C84.4445 69.367 84.0426 68.5328 83.2801 68.2662C82.5178 67.9996 81.6836 68.4016 81.4168 69.1639C77.2037 81.2125 65.792 89.3076 53.0203 89.3076C36.4371 89.3076 22.9461 75.8164 22.9461 59.2334C22.9461 42.6504 36.4373 29.1592 53.0203 29.1592C69.6033 29.1592 83.0943 42.6504 83.0943 59.2334C83.0943 60.3887 83.0283 61.5522 82.8992 62.6795L82.8574 63.0225Z" fill="white"/>
<path d="M59.2305 59.2332C59.2305 56.3127 57.2036 53.8582 54.4831 53.1988V45.6432C54.4831 44.8355 53.8284 44.1808 53.0208 44.1808C52.2131 44.1808 51.5584 44.8355 51.5584 45.6432V53.1988C48.8379 53.8582 46.8108 56.3127 46.8108 59.2332C46.8108 62.6574 49.5967 65.4431 53.0208 65.4431C56.4448 65.4431 59.2305 62.6574 59.2305 59.2332ZM53.0206 62.5183C51.209 62.5183 49.7352 61.0447 49.7352 59.2332C49.7352 57.4217 51.209 55.948 53.0206 55.948C54.8319 55.948 56.3057 57.4217 56.3057 59.2332C56.3057 61.0447 54.8319 62.5183 53.0206 62.5183Z" fill="white"/>
<path d="M7.6752 80.2514H11.0535C11.8611 80.2514 12.5158 79.5967 12.5158 78.7891C12.5158 77.9814 11.8611 77.3268 11.0535 77.3268H7.6752C6.86758 77.3268 6.21289 77.9814 6.21289 78.7891C6.21289 79.5967 6.86738 80.2514 7.6752 80.2514Z" fill="white"/>
<path d="M7.6752 88.5129H15.1824C15.99 88.5129 16.6447 87.8582 16.6447 87.0506C16.6447 86.243 15.99 85.5883 15.1824 85.5883H7.6752C6.86758 85.5883 6.21289 86.243 6.21289 87.0506C6.21289 87.8582 6.86738 88.5129 7.6752 88.5129Z" fill="white"/>
<path d="M20.625 93.8496H7.6752C6.86758 93.8496 6.21289 94.5043 6.21289 95.3119C6.21289 96.1195 6.86758 96.7742 7.6752 96.7742H20.625C21.4326 96.7742 22.0873 96.1195 22.0873 95.3119C22.0873 94.5043 21.4328 93.8496 20.625 93.8496Z" fill="white"/>
</g>
<defs>
<clipPath id="clip0">
<rect width="100" height="100" fill="white"/>
</clipPath>
</defs>
</svg>
